PathFileType	4	(X/Y/Z)	C:\Users\Graham\Documents\MATLAB\MOtoNMS_v2_2\MyData\ElaboratedData\S1\17-05-18\staticElaborations\Static1\Static1\\Static1.trc
DataRate	CameraRate	NumFrames	NumMarkers	Units	OrigDataRate	DataStartFrame
100	100	7	38	mm	100	2
Frame#	Time	V_Sacral			R_ASIS			L_ASIS			R_Knee_Lat			R_Knee_Med			R_Thigh_Upper			R_Thigh_Front			R_Thigh_Rear			L_Knee_Lat			L_Knee_Med			L_Thigh_Upper			L_Thigh_Front			L_Thigh_Rear			R_Ankle_Lat			R_Ankle_Med			R_Shank_Upper			R_Shank_Front			R_Shank_Rear			L_Ankle_Lat			L_Ankle_Med			L_Shank_Upper			L_Shank_Front			L_Shank_Rear			R_Heel			R_MTP1			R_MTP5			L_Heel			L_MTP1			L_MTP5			Clavicle			R_Acromium			L_Acromium			LAJC			RAJC			LHJC			RHJC			LKJC			RKJC		
		X1	Y1	Z1	X2	Y2	Z2	X3	Y3	Z3	X4	Y4	Z4	X5	Y5	Z5	X6	Y6	Z6	X7	Y7	Z7	X8	Y8	Z8	X9	Y9	Z9	X10	Y10	Z10	X11	Y11	Z11	X12	Y12	Z12	X13	Y13	Z13	X14	Y14	Z14	X15	Y15	Z15	X16	Y16	Z16	X17	Y17	Z17	X18	Y18	Z18	X19	Y19	Z19	X20	Y20	Z20	X21	Y21	Z21	X22	Y22	Z22	X23	Y23	Z23	X24	Y24	Z24	X25	Y25	Z25	X26	Y26	Z26	X27	Y27	Z27	X28	Y28	Z28	X29	Y29	Z29	X30	Y30	Z30	X31	Y31	Z31	X32	Y32	Z32	X33	Y33	Z33	X34	Y34	Z34	X35	Y35	Z35	X36	Y36	Z36	X37	Y37	Z37	X38	Y38	Z38	

2	0.010000	-44.170379	1071.088101	3.994959	154.366383	1026.195398	130.541221	158.082767	1034.283919	-101.533265	15.170860	533.717498	173.880441	41.017729	522.876620	66.498257	146.089837	867.602379	172.653339	157.343713	744.201852	138.956079	103.304198	743.700906	197.884780	22.423982	537.873326	-163.341600	29.531586	521.207124	-55.578889	159.795414	862.351545	-142.440916	161.459222	744.498595	-92.887908	124.146270	742.844473	-169.745850	11.808686	111.550897	183.774469	20.777009	107.627562	99.510884	66.981243	329.848744	165.102203	44.852622	217.374689	109.102564	33.452555	213.657189	190.307141	6.206650	100.032346	-174.960519	25.392849	104.898230	-86.489990	61.134609	332.557227	-149.284474	41.917088	214.655762	-105.010358	29.057469	217.430738	-183.469030	-56.091473	53.669851	127.661052	174.720920	62.699262	115.745578	161.948900	56.927007	191.875888	-62.391922	57.099538	-125.439064	174.648841	58.819829	-112.303980	151.775070	51.599162	-197.071433	151.857896	1462.023342	14.528280	105.025503	1498.303903	205.028851	97.570263	1505.788611	-187.979802	15.799750	102.465288	-130.725254	16.292847	109.589229	141.642677	83.762020	965.938780	-72.900124	81.075577	960.091875	94.858309	25.977784	529.540225	-109.460244	28.094295	528.297059	120.189349	
3	0.020000	-44.137754	1071.080845	3.987036	154.353488	1026.205542	130.553835	158.077005	1034.288144	-101.535569	15.172499	533.718311	173.880023	40.998466	522.861338	66.493864	146.073313	867.602925	172.661271	157.330822	744.192294	138.961026	103.297373	743.703448	197.888406	22.430529	537.870250	-163.341386	29.536223	521.205807	-55.574230	159.791967	862.349320	-142.426075	161.450199	744.494375	-92.883217	124.145818	742.839763	-169.744063	11.812271	111.551715	183.774177	20.774556	107.624104	99.506535	66.969561	329.842319	165.092996	44.841053	217.372878	109.092800	33.453001	213.662642	190.304529	6.205633	100.029602	-174.963463	25.387685	104.900644	-86.488526	61.129968	332.552146	-149.280467	41.923622	214.651942	-105.010408	29.054755	217.430131	-183.470852	-56.091892	53.668593	127.665663	174.721318	62.700128	115.746090	161.942725	56.928984	191.873478	-62.395905	57.093433	-125.435044	174.644306	58.822819	-112.305337	151.772890	51.605972	-197.076160	151.907706	1462.018275	14.512959	105.074402	1498.310883	205.005355	97.610351	1505.787159	-187.998418	15.796659	102.465123	-130.725994	16.293414	109.587910	141.640356	83.766590	965.935190	-72.900341	81.075006	960.092595	94.867945	25.983376	529.538028	-109.457808	28.085483	528.289825	120.186943	
4	0.030000	-44.108412	1071.075287	3.980298	154.341516	1026.215006	130.565959	158.072052	1034.292249	-101.537291	15.173460	533.718927	173.879557	40.979901	522.846726	66.489632	146.057861	867.602926	172.668802	157.319384	744.183506	138.965532	103.290734	743.705380	197.891408	22.437014	537.867125	-163.340888	29.541167	521.204264	-55.569843	159.788708	862.347117	-142.411802	161.441650	744.490211	-92.878922	124.145201	742.835200	-169.742590	11.815549	111.552465	183.773680	20.772208	107.620862	99.502226	66.958239	329.836307	165.084370	44.831752	217.371422	109.082643	33.453046	213.667525	190.302119	6.204342	100.026864	-174.966276	25.382751	104.902761	-86.487117	61.125526	332.547077	-149.276631	41.929843	214.647598	-105.009873	29.051877	217.429263	-183.472381	-56.092343	53.667413	127.670051	174.721626	62.701038	115.746532	161.936880	56.930833	191.871086	-62.399747	57.087361	-125.431137	174.639959	58.825712	-112.306441	151.770668	51.612504	-197.080687	151.954585	1462.012887	14.497732	105.121206	1498.317622	204.982418	97.649123	1505.786190	-188.016842	15.793547	102.464813	-130.726696	16.293878	109.586663	141.637953	83.770597	965.932380	-72.900288	81.073954	960.093690	94.877143	25.989091	529.535695	-109.455365	28.076681	528.282826	120.184594	
5	0.040000	-44.084711	1071.072791	3.975889	154.331912	1026.223657	130.577142	158.069173	1034.296517	-101.537773	15.174154	533.719140	173.878012	40.962845	522.833433	66.485922	146.045155	867.602136	172.675778	157.310999	744.176157	138.969387	103.284864	743.706141	197.893523	22.443643	537.863817	-163.339841	29.546786	521.202315	-55.565789	159.786354	862.344883	-142.398482	161.434306	744.486077	-92.875073	124.144851	742.830826	-169.741330	11.818189	111.553121	183.772863	20.770027	107.618038	99.497999	66.947803	329.830886	165.076823	44.826893	217.370723	109.071625	33.452512	213.671292	190.300151	6.202546	100.024048	-174.968884	25.378303	104.904317	-86.485723	61.121517	332.542009	-149.273132	41.935576	214.642238	-105.008043	29.048784	217.427871	-183.473321	-56.092938	53.666405	127.674101	174.721762	62.702077	115.746800	161.931609	56.932495	191.868700	-62.403263	57.081319	-125.427386	174.635887	58.828475	-112.307180	151.768363	51.618577	-197.084825	151.996664	1462.007856	14.481865	105.164336	1498.324293	204.959861	97.684196	1505.786492	-188.035694	15.790424	102.464183	-130.727304	16.294108	109.585579	141.635431	83.774315	965.931286	-72.899565	81.072822	960.095788	94.885568	25.995215	529.533066	-109.452815	28.068500	528.276287	120.181967	
6	0.050000	-44.069016	1071.074606	3.974579	154.325891	1026.231521	130.587029	158.069430	1034.301272	-101.536510	15.175179	533.718811	173.874508	40.947973	522.821942	66.483086	146.036701	867.600485	172.682115	157.306947	744.170728	138.972458	103.280300	743.705353	197.894660	22.450625	537.860214	-163.338046	29.553344	521.199847	-55.562091	159.785618	862.342570	-142.386399	161.428861	744.481948	-92.871603	124.145258	742.826676	-169.740109	11.819959	111.553679	183.771672	20.768056	107.615789	99.493912	66.938723	329.826158	165.070737	44.827983	217.371101	109.059430	33.451358	213.673583	190.298822	6.200100	100.021076	-174.971243	25.374544	104.905113	-86.484307	61.118127	332.536927	-149.270078	41.940746	214.635530	-105.004372	29.045487	217.425766	-183.473469	-56.093787	53.665638	127.677739	174.721657	62.703314	115.746809	161.927069	56.933922	191.866296	-62.406302	57.075298	-125.423816	174.632127	58.831086	-112.307522	151.765960	51.624075	-197.088431	152.032746	1462.003994	14.464666	105.202580	1498.331088	204.937419	97.713306	1505.788773	-188.055636	15.787322	102.463094	-130.727775	16.294008	109.584734	141.632792	83.777905	965.932748	-72.897862	81.071882	960.099517	94.892964	26.001984	529.530030	-109.450069	28.061576	528.270377	120.178797	
7	0.060000	-44.063580	1071.081803	3.976645	154.324382	1026.238818	130.595389	158.073599	1034.306885	-101.533195	15.177317	533.717878	173.868415	40.935861	522.812561	66.481440	146.033751	867.598115	172.687804	157.308126	744.167476	138.974719	103.277538	743.702878	197.894937	22.458178	537.856235	-163.335379	29.561010	521.196833	-55.558727	159.787186	862.340140	-142.375705	161.425956	744.477821	-92.868302	124.146985	742.822777	-169.738655	11.820755	111.554162	183.770130	20.766325	107.614207	99.490048	66.931433	329.822145	165.066349	44.835677	217.372744	109.045945	33.449719	213.674270	190.298276	6.196968	100.017888	-174.973333	25.371604	104.905039	-86.482838	61.115501	332.531820	-149.267506	41.945417	214.627370	-104.998529	29.042070	217.422852	-183.472732	-56.094975	53.665144	127.680944	174.721268	62.704787	115.746506	161.923317	56.935080	191.863851	-62.408765	57.069297	-125.420445	174.628665	58.833539	-112.307507	151.763465	51.628948	-197.091416	152.062479	1462.002250	14.445535	105.235198	1498.338219	204.914765	97.734435	1505.793587	-188.077333	15.784286	102.461463	-130.728085	16.293540	109.584185	141.630089	83.781399	965.937480	-72.894965	81.071277	960.105477	94.899189	26.009594	529.526534	-109.447053	28.056589	528.265220	120.174927	
8	0.070000	-44.070252	1071.095168	3.981849	154.328025	1026.245974	130.602133	158.082135	1034.313775	-101.527740	15.181478	533.716359	173.859433	40.927063	522.805459	66.481231	146.037222	867.595375	172.692904	157.315036	744.166446	138.976267	103.277060	743.698835	197.894674	22.466547	537.851840	-163.331805	29.569884	521.193328	-55.555631	159.791699	862.337568	-142.366409	161.426161	744.473719	-92.864823	124.150658	742.819154	-169.736606	11.820604	111.554621	183.768342	20.764856	107.613316	99.486512	66.926351	329.818793	165.063741	44.849744	217.375691	109.031285	33.447897	213.673462	190.298589	6.193219	100.014454	-174.975152	25.369528	104.904091	-86.481293	61.113749	332.526685	-149.265379	41.949797	214.617901	-104.990416	29.038690	217.419134	-183.471134	-56.096546	53.664928	127.683739	174.720588	62.706501	115.745870	161.920330	56.935971	191.861352	-62.410613	57.063336	-125.417284	174.625448	58.835840	-112.307234	151.760897	51.633212	-197.093757	152.086410	1462.003673	14.423999	105.261971	1498.345932	204.891554	97.745949	1505.801272	-188.101408	15.781374	102.459273	-130.728223	16.292730	109.583968	141.627427	83.784758	965.946023	-72.890764	81.071100	960.114216	94.904237	26.018215	529.522584	-109.443718	28.054271	528.260909	120.170332	
